<?xml version="1.0" encoding="utf-8"?>
<!-- Generator: Adobe Illustrator 23.0.3, SVG Export Plug-In . SVG Version: 6.00 Build 0)  -->
<svg version="1.1" id="Layer_1" xmlns="http://www.w3.org/2000/svg" xmlns:xlink="http://www.w3.org/1999/xlink" x="0px" y="0px"
	 viewBox="0 0 1200 1200" enable-background="new 0 0 1200 1200" xml:space="preserve">
<g>
	<path fill="#BAD4D6" d="M595.939,538.776l6.38-173.851c0,0-46.254-51.039-52.634-65.394c-6.38-14.355,30.304-17.545,30.304-17.545
		l1.595-90.913c0,0-31.899-43.064-28.709-66.989s44.659,23.924,44.659,23.924s-17.545-43.064,4.785-52.634
		c22.329-9.57,30.304,35.089,30.304,35.089s79.748-35.089,90.913-12.76c11.165,22.329-66.989,60.609-66.989,60.609l-12.76,39.874
		c0,0,27.114,14.355,27.114,23.924s-22.329,12.76-22.329,12.76l7.975,46.254c0,0,52.634-6.38,55.824,14.355
		c3.19,20.735-63.799,59.014-63.799,59.014l1.595,156.307l102.426-131.235c0,0-0.348-48.996,20.386-69.731
		c20.735-20.735,46.254,20.735,46.254,20.735s3.564-16.82,19.14-36.684c15.576-19.864,27.114-22.33,27.114-22.33
		s-19.14-89.318,15.95-92.508c35.089-3.19,36.684,47.849,36.684,47.849s49.444-38.279,66.989-31.899
		c17.545,6.38-27.114,49.444-27.114,49.444s73.368,33.494,68.583,54.229c-4.785,20.735-95.698,11.165-95.698,11.165
		s-1.595,19.14-12.76,35.089s-62.204,19.14-62.204,19.14s65.394,35.089,60.609,55.824c-4.785,20.735-127.597,17.545-127.597,17.545
		L648.573,567.486l189.801,7.975c0,0,51.039-57.419,76.558-49.444c25.519,7.975-20.734,44.659-20.734,44.659l68.583,3.19
		c0,0,82.938-78.153,102.078-63.799c19.14,14.355-19.14,55.824-19.14,55.824s54.229,9.57,59.014,19.14s-55.824,4.785-55.824,4.785
		l25.52,30.304c0,0,22.329,47.849-6.38,54.229c-28.709,6.38-62.204-62.204-62.204-62.204s-9.57,14.355-33.494,25.519
		c-23.924,11.165-65.394-27.114-65.394-27.114s20.735,35.089,1.595,55.824s-90.913-51.039-90.913-51.039l-177.041-6.38
		l113.242,76.558c0,0,90.913,25.519,98.888,44.659c7.975,19.14-52.634,12.76-52.634,12.76s41.469,39.874,63.799,57.419
		c22.33,17.545,25.519,46.254,25.519,46.254s65.394,6.38,79.748,15.95c14.355,9.57-33.494,19.14-33.494,19.14
		s90.913,84.533,68.583,100.483c-22.33,15.95-51.039-47.849-51.039-47.849s-23.924,35.089-47.849,35.089
		c-23.924,0-6.38-62.204-6.38-62.204s-28.709-19.14-49.444-20.735c-20.734-1.595-36.684-60.609-36.684-60.609
		s-11.165,51.039-43.064,49.444s-19.14-130.787-19.14-130.787l-113.242-95.698l11.165,105.268c0,0,47.849,63.799,46.254,108.458
		c-1.595,44.659-54.229,7.975-54.229,7.975s23.924,33.494,31.899,54.229c7.975,20.735-35.089,33.494-35.089,33.494
		s51.039,27.114,68.583,79.748c17.545,52.634-47.849,3.19-47.849,3.19s-11.165,33.494-38.279,38.279
		c-27.114,4.785-14.355-43.064-14.355-43.064s-17.545,7.975-55.824,9.57s28.709-71.773,28.709-71.773s-3.19-12.76-15.95-33.494
		s35.089-63.799,35.089-63.799s-51.039,15.95-62.204-4.785s76.558-74.963,76.558-74.963l-3.19-162.686l-97.293,84.533
		c0,0-19.14,81.343-46.254,122.812c-27.114,41.469-38.279-44.659-47.849-11.165c-9.57,33.494-55.824,47.849-55.824,47.849
		s15.95,73.368-12.76,103.673s-30.304-49.444-30.304-49.444s-25.519,27.114-49.444,19.14c-23.924-7.975,33.494-82.938,33.494-82.938
		s-52.634,7.975-60.609-9.57s97.293-28.709,97.293-28.709s0,0-1.931-17.176s64.135-48.218,64.135-48.218s-41.469-3.19-41.469-27.114
		c0-23.924,87.723-14.355,87.723-14.355L576.799,597.79l-154.712,6.38c0,0-19.14,43.064-79.748,62.204S297.68,613.74,297.68,613.74
		s-62.204,6.38-124.407,38.279s1.595-49.444,1.595-49.444s-65.394,27.114-87.723,0s70.178-30.304,70.178-30.304
		s-31.899-38.279-11.165-46.254c20.735-7.975,66.989,44.659,66.989,44.659s7.975-11.165,39.874-14.355s82.938,15.95,82.938,15.95
		s-15.95-27.114,6.38-49.444c22.329-22.33,78.153,44.659,78.153,44.659l122.812-15.95l-97.293-81.343c0,0-39.874-6.38-70.178-23.924
		c-30.304-17.545,22.329-62.204-19.14-68.583c-41.469-6.38-36.684-44.659-36.684-44.659s-35.089,7.975-68.583-12.76
		c-33.494-20.735,47.849-52.634,47.849-52.634s-7.975-55.824,30.304-55.824s28.709,92.508,39.874,100.483
		c11.165,7.975,39.874,52.634,39.874,52.634s20.735-62.204,51.039-43.064c30.304,19.14-6.38,81.343-6.38,81.343l118.027,129.192
		L595.939,538.776z"/>
	<path fill="#2C3A3A" d="M1146.09,615.651c3.036-3.183,4.344-7.088,3.783-11.295c-2.744-20.576-44.47-25.585-69.706-26.722
		c15.02-16.023,39.835-45.59,37.241-63.548c-0.774-5.359-3.76-9.554-8.635-12.135c-26.623-14.09-82.571,55.49-97.731,75.284
		l-40.336-1.223c-2.438-12.753-9.759-29.402-25.564-29.402c-16.864,0-23.973,16.419-26.514,24.863h-29.645
		c13.593-14.468,35.439-40.644,33.701-57.811c-0.56-5.531-3.351-10.013-8.072-12.963c-25.213-15.748-70.699,46.963-86.692,70.774
		h-144.36l91.212-99.03c18.258,2.606,93.854,12.166,115.33-4.423c3.957-3.055,6.293-7.017,6.761-11.457
		c0.569-5.416-1.148-10.647-4.971-15.129c-12.617-14.793-47.793-20.457-67.071-22.496l22.483-23.419
		c4.956,4.297,13.415,10.189,22.821,10.502c6.585,0.206,12.712-2.323,17.739-7.353c14.634-14.634,11.795-35.768,9.797-44.478
		l22.828-19.223c28.353,5.009,107.291,16.249,115.139-12.007c1.328-4.78,0.541-9.753-2.275-14.382
		c-10.425-17.135-49.839-29.368-71.588-34.975c12.791-8.603,30.982-23.214,33.651-38.145c1.139-6.362-0.552-12.367-4.885-17.368
		c-3.76-4.337-8.998-6.765-15.154-7.025c-18.746-0.785-44.963,18.937-59.804,31.681c0.823-18.973-0.216-50.141-14.279-63.254
		c-5.754-5.367-13.222-7.344-21.613-5.737c-6.639,1.276-12.053,5.093-16.094,11.344c-17.865,27.637-3.036,100.805,0.55,117.007
		l-14.25,15.27c-4.409-3.808-11.507-8.622-19.647-9.147c-5.938-0.397-11.572,1.645-16.268,5.873
		c-13.966,12.567-8.928,31.634-5.877,39.732l-19.498,21.195c0.655-17.001-0.638-41.645-12.061-53.142
		c-5.088-5.12-11.784-7.302-19.363-6.318c-6.421,0.837-11.7,4.129-15.689,9.784c-15.931,22.578-5.989,79.138-3.047,93.856
		L634.957,539.717l-1.295-150.531c21.502-12.025,93.753-54.978,84.525-84.191c-1.769-5.605-5.653-9.816-11.23-12.179
		c-18.811-7.967-55.478,6.717-71.549,13.996l-4.052-29.385c10.351-3.196,31.527-11.851,31.527-29.167
		c0-15.899-15.909-22.479-28.197-24.341l-2.262-28.281c25.323-17.145,91.992-65.644,78.041-91.995
		c-2.572-4.856-6.815-7.946-12.271-8.93c-17.939-3.25-48.494,18.627-64.954,31.825c0.672-16.331-0.296-42.145-11.44-55.391
		c-4.555-5.412-10.328-8.322-17.16-8.647c-6.971-0.357-12.94,2.178-17.255,7.254c-10.575,12.445-9.105,38.58-6.989,54.452
		c-20.232-11.478-58.998-31.336-75.55-25.279c-4.165,1.523-7.082,4.472-8.435,8.532c-7.766,23.302,57.823,75.886,81.719,94.076
		l1.15,28.758c-6.979,1.616-18.858,5.405-24.508,13.242c-2.805,3.892-3.838,8.418-2.988,13.089
		c2.747,15.116,20.765,20.861,30.189,22.851l-2.988,35.875c-16.165-13.285-47.38-36.372-63.741-31.445
		c-3.586,1.085-8.263,3.894-10.166,11.125c-7.518,28.565,52.653,79.545,69.985,93.514l-1.309,141.246l-100.377-99.072
		c5.819-23.891,23.671-106.853-5.936-117.762c-5.808-2.14-11.782-1.632-17.271,1.465c-16.575,9.356-26.516,41.744-30.703,58.717
		l-20.906-19.005c3.785-6.031,9.371-17.049,7.934-27.778c-0.837-6.247-4.027-11.612-9.228-15.511
		c-15.53-11.644-34.066-4.66-42.802-0.138l-10.318-14.445c0.399-7.262,1.632-32.264,1.169-57.251
		c-1.049-56.55-9.665-65.48-17.957-66.754c-19.548-3.038-31.355,40.808-36.865,68.594c-12.472-11.394-36.528-30.843-55.58-30.977
		c-6.545,0.004-12.118,2.124-16.442,6.448c-3.888,3.888-5.686,8.952-5.198,14.65c1.654,19.33,31.061,45.074,48.301,58.604
		c-24.158,3.441-66.613,11.591-74.161,27.058c-2.147,4.4-1.8,9.272,0.98,13.717c15.249,24.403,86.163,11.675,106.047,7.554
		l23.917,17.083c-6.482,10.059-18.071,31.968-4.27,42.701c13.385,10.41,37.312-1.88,46.91-7.588l22.032,19.158
		c-15.954,4.713-43.915,14.823-51.248,29.465c-21.513,42.955,79.121,26.067,95.291,22.235L544.62,575.861H392.553
		c-13.696-21.002-63.808-93.891-91.873-81.399c-29.577,13.147,3.364,66.08,13.44,82.58l-37.596-0.963
		c3.032-8.836,6.075-22.225,0.522-30.335c-2.216-3.233-6.65-6.983-15.299-6.436c-21.353,1.333-30.251,19.374-33.29,27.948
		l-29.196,1.167c-13.857-19.552-63.877-86.27-92.996-74.008c-5.462,2.3-9.163,6.538-10.701,12.256
		c-4.986,18.545,14.959,51.635,26.804,69.081c-19.218-1.905-52.962-3.462-66.072,7.12c-3.813,3.08-5.98,7.111-6.264,11.656
		c-0.279,4.474,1.345,8.693,4.7,12.198c12.177,12.729,48.796,15.4,68.302,15.901c-11.193,15.31-30.425,44.89-27.67,64.071
		c4.829,33.624,43.908,7.244,57.104-3.827c20.026-16.801,37.542-36.783,53.874-57.126l24.376,1.013
		c-1.418,5.858-2.21,13.843,1.337,20.255c1.968,3.557,6.1,8.055,14.604,9.27c20.133,2.858,29.618-17.057,32.921-26.269h34.039
		c-14.261,14.798-36.172,40.724-33.514,57.922c5.002,32.371,45.198,4.823,56.53-5.733c16.956-15.795,31.321-34.612,44.248-53.782
		l158.828-6.561L432.595,727.67c-28.615-3.42-108.053-10.668-117.426,12.766c-1.758,4.39-1.433,8.953,0.942,13.186
		c8.423,15.024,43.97,24.187,62.574,28.042l-19.336,24.175c-1.974-1.563-4.415-3.324-7.099-4.872
		c-13.889-7.993-21.967-3.187-25.543,0.39c-9.852,9.85-6.52,24.863-4.153,31.939l-26.028,26.028
		c-17.668-1.922-93.05-9.037-112.216,7.038c-4.308,3.611-5.407,7.684-5.571,10.466c-0.269,4.581,1.404,8.96,4.839,12.666
		c12.244,13.209,48.243,17.649,69.715,19.139c-16.321,13.412-42.109,37.315-43.169,55.19c-0.331,5.579,1.599,10.485,5.582,14.183
		c4.029,3.741,9.107,5.491,15.116,5.185c18.782-0.944,43.653-23.094,57.599-37.117c0.548,20.442,3.647,55.274,17.863,68.647
		c4.633,4.356,10.286,6.358,16.352,5.773c5.025-0.478,9.503-3.068,12.951-7.485c17.647-22.616,8.452-96.674,5.909-114.633
		l15.192-14.18c3.009,2.915,7.48,6.159,13.268,7.374c7.019,1.467,14.18-0.275,21.283-5.189
		c16.602-11.493,11.098-32.108,4.276-44.552l25.948-22.104c0.386,19.533,3.116,54.632,17.198,67.195
		c4.528,4.043,10.034,5.705,15.924,4.83c31.42-4.715,22.67-96.514,18.499-129.362l107.621-101.061L578.07,816.84
		c-15.129,9.529-74.853,48.595-80.404,74.853c-1.076,5.089-0.246,9.816,2.401,13.668c3.276,4.765,8.163,7.657,14.136,8.364
		c18.178,2.144,44.944-16.732,59.424-28.317v31.68c-8.297,3.714-26.202,13.989-23.333,32.646
		c2.424,15.765,14.886,21.89,24.093,23.514l4.572,29.716c-16.098,10.244-75.105,49.565-80.769,78.826
		c-1.215,6.274-0.021,12.078,3.452,16.789c4.358,5.915,10.454,9.186,17.626,9.457c18.704,0.703,41.78-19.158,55.285-32.62
		c0.057,16.923,2.178,42.523,13.469,54.773c4.427,4.807,10.076,7.344,16.338,7.344c6.597,0,12.447-2.64,16.917-7.638
		c10.769-12.028,12.095-36.001,11.709-51.266c15.825,11.921,43.819,30.369,60.346,26.135c5.447-1.398,9.447-5.017,11.564-10.462
		c10.832-27.851-58.161-81.665-77.327-95.925l-2.132-29.857c8.261,1.899,20.2,3.19,27.435-2.61c3.158-2.526,6.69-7.413,5.575-16.338
		c-2.667-21.344-21.634-33.815-29.414-38.08L627.183,880c17.571,16.048,49.598,42.157,68.242,38.171
		c4.06-0.871,9.51-3.504,12.412-11.119c12.116-31.802-58.581-85.719-78.622-100.193l-1.314-145.819l116.037,106.803
		c-6.154,20.897-29.175,106.716,2.495,123.306c8.379,4.386,15.066,2.606,19.198,0.348c16.766-9.186,23.724-45.194,26.227-63.523
		l26.313,19.491c-4.826,6.301-11.788,17.416-10.869,28.164c0.514,6.022,3.466,11.215,8.536,15.016
		c14.881,11.161,29.735,3.546,38.028-4.306l20.538,14.054c-5.028,32.012-15.544,118.205,15.473,124.407
		c6.068,1.219,11.641-0.264,16.115-4.283c12.729-11.421,14.097-43.177,13.637-62.66c19.388,18.218,56.132,47.758,74.847,30.388
		c4.119-3.825,6.121-8.876,5.789-14.611c-1.016-17.584-25.15-40.227-40.218-52.725c18.587-2.625,49.193-9.033,60.784-23.545
		c3.97-4.971,5.598-10.737,4.707-16.675c-0.714-4.765-3.418-8.949-7.816-12.093c-22.502-16.105-93.348-5.453-112.237-2.251
		l-12.984-19.475c4.245-5.468,10.997-16.086,9.04-26.284c-0.841-4.383-3.68-10.466-12.422-14.546
		c-17.899-8.356-33.922-2.426-41.832,1.815l-15.515-21.902c20.853-1.421,60.935-6.007,70.581-20.446
		c2.703-4.043,3.213-8.624,1.479-13.247c-9.247-24.66-90.54-25.004-118.937-24.339l-116.681-99.639l147.323-2.583
		c6.801,15.261,33.995,72.14,66.647,84.795c9.48,3.668,18.704,3.477,27.412-0.585c12.126-5.659,15.632-14.241,16.436-20.442
		c2.862-22.055-23.289-50.624-39.15-65.713l32.281-0.894c0.802,7.382,3.355,19.575,11.434,26.708
		c4.895,4.321,11.178,6.156,18.197,5.265c18.696-2.335,26-16.728,27.958-27.507l25.396,1.104
		c14.636,18.574,69.736,85.062,98.841,72.793c5.577-2.35,9.103-6.541,10.196-12.124c3.401-17.359-19.676-46.165-34.496-62.538
		C1098.582,627.504,1135.074,627.186,1146.09,615.651z M1062.654,613.911c-2.461-0.187-4.784,1.137-5.825,3.372
		c-1.041,2.235-0.573,4.883,1.171,6.626c18.748,18.749,44.071,50.67,41.67,62.931c-0.245,1.246-0.804,2.541-3.233,3.561
		c-16.304,6.885-60.505-37.572-86.692-71.318c-1.056-1.36-2.658-2.189-4.378-2.266c-10.061-0.451-24.29-4.92-34.002-0.551
		c-12.52,5.632-4.83,24.523-24.024,26.92c-3.727,0.47-6.566-0.302-8.961-2.408c-13.158-11.574-0.137-30.411-23.49-29.545
		c-14.34,0.531-28.695,0.798-43.04,1.196c-2.442,0.069-4.585,1.639-5.384,3.945c-0.799,2.308-0.086,4.868,1.788,6.431
		c13.704,11.417,48.704,45.382,46.138,65.147c-0.401,3.091-1.849,7.627-9.759,11.318c-5.77,2.694-11.727,2.782-18.201,0.279
		c-26.613-10.309-50.962-58.702-58.923-75.924l13.765-3.743c3.127-0.852,4.975-4.077,4.123-7.204
		c-0.85-3.129-4.067-4.983-7.203-4.123l-19.664,5.349l-166.01,2.91c-2.438,0.042-4.597,1.59-5.42,3.886
		c-0.825,2.296-0.143,4.86,1.712,6.446c41.437,35.385,82.117,71.924,124.427,106.255c12.005,9.741,27.42,5.881,42.359,6.48
		c17.531,0.703,35.055,2.419,52.292,5.742c6.17,1.189,28.766,4.566,23.472,14.888c-3.404,6.638-22.36,8.637-28.505,9.787
		c-12.982,2.428-26.225,3.767-39.414,4.359l-18.53-21.927c-2.088-2.476-5.791-2.793-8.271-0.695
		c-2.476,2.09-2.785,5.793-0.693,8.269c0,0,20.213,23.919,20.214,23.92c7.525,10.624,13.014,25.371,23.765,33.28
		c6.741,4.959,8.145,2.557,15.098-0.422c9.443-4.045,19.611-4.843,29.13-0.404c5.136,2.395,5.678,5.191,5.855,6.109
		c1.922,9.919-11.657,16.452-10.184,26.136c1.264,8.307,13.22,19.929,18.015,27.122c1.299,1.949,3.63,2.946,5.932,2.518
		c23.891-4.337,89.707-12.873,107.119-0.42c2.401,1.719,2.883,3.271,3.036,4.291c0.411,2.736-0.311,5.151-2.27,7.604
		c-10.993,13.771-52.059,19.667-66.955,20.775c-2.449,0.183-4.528,1.872-5.206,4.237c-0.676,2.361,0.189,4.895,2.17,6.35
		c17.691,12.972,46.06,38.81,46.877,52.917c0.13,2.243-0.506,3.886-2.058,5.326c-11.056,10.271-47.873-18.215-69.274-40.697
		c-1.721-1.807-4.398-2.331-6.669-1.299c-2.273,1.028-3.649,3.382-3.427,5.869c1.926,21.558,1.194,59.152-8.966,68.265
		c-1.731,1.551-3.517,2.002-5.976,1.513c-13.675-2.737-14.27-54.394-7.182-104.326l9.2,7.862c1.106,0.944,2.463,1.406,3.811,1.406
		c1.656,0,3.303-0.699,4.463-2.056c2.107-2.465,1.817-6.171-0.648-8.276l-17.219-14.715c-0.107-0.091-0.227-0.152-0.338-0.234
		c-0.059-0.044-0.099-0.106-0.16-0.148l-27.79-19.013c-2.554-1.746-6.02-1.211-7.93,1.219c-0.512,0.65-12.689,15.857-25.503,6.243
		c-2.415-1.811-3.647-3.909-3.882-6.612c-1.418-16.391,23.12-23.943,4.925-37.523c-11.052-8.248-22.164-16.419-33.246-24.628
		c-1.714-1.272-3.972-1.509-5.907-0.634c-1.937,0.875-3.252,2.728-3.435,4.845c-1.847,21.428-9.275,57.888-21.344,64.498
		c-1.649,0.913-4.064,1.677-8.112-0.451c-19.208-10.061-7.529-74.646,4.344-112.997c0.671-2.163,0.036-4.52-1.632-6.052
		L625.884,643.231c-1.719-1.582-4.211-1.998-6.356-1.047c-2.138,0.951-3.508,3.08-3.487,5.418l1.463,162.345
		c0.017,1.884,0.936,3.641,2.472,4.734c36.116,25.631,83.847,69.935,76.891,88.192c-1.091,2.866-2.583,3.538-3.897,3.821
		c-13.018,2.732-47.838-24.848-68.372-45.37c-1.723-1.719-4.331-2.208-6.555-1.204c-2.222,0.997-3.597,3.267-3.454,5.697
		l2.925,49.726c0.13,2.193,1.469,4.127,3.475,5.021c0.233,0.103,23.327,10.584,25.813,30.465c0.535,4.279-0.816,5.361-1.259,5.716
		c-4.157,3.34-17.122,0.948-24.575-1.727c-1.867-0.665-3.949-0.344-5.529,0.852c-1.58,1.2-2.449,3.114-2.308,5.09l2.914,40.801
		l0.987,32.749c0.097,3.179,2.703,5.693,5.863,5.693c0.061,0,0.12,0,0.182-0.004c3.238-0.096,5.787-2.801,5.689-6.041l-0.621-20.591
		c33.204,25.819,71.208,62.605,65.812,76.48c-0.749,1.926-1.775,2.896-3.544,3.351c-12.261,3.137-43.534-17.985-60.348-32.05
		c-1.842-1.536-4.432-1.803-6.541-0.669c-2.113,1.131-3.324,3.435-3.059,5.819c1.284,11.555,2.361,44.067-7.934,55.568
		c-2.275,2.545-4.872,3.729-8.171,3.729c-3.019,0-5.468-1.131-7.705-3.557c-11.201-12.147-10.905-48.702-9.847-61.762
		c0.204-2.533-1.242-4.91-3.586-5.892c-0.734-0.306-1.502-0.455-2.264-0.455c-1.672,0-3.309,0.718-4.448,2.04
		c-9.701,11.264-38.487,40.147-56.203,40.147c-0.203,0-0.403-0.004-0.602-0.011c-3.622-0.138-6.36-1.628-8.616-4.688
		c-1.538-2.09-1.977-4.501-1.377-7.592c4.417-22.838,58.319-60.547,78.717-73.148c2.004-1.238,3.074-3.557,2.715-5.888l-5.85-38.03
		c-0.439-2.862-2.904-4.975-5.8-4.975c-0.63,0-15.465-0.16-17.601-14.038c-2.132-13.859,19.252-21.256,19.456-21.325
		c2.398-0.799,4.014-3.042,4.014-5.567v-48.266c0-2.319-1.364-4.417-3.481-5.361c-2.122-0.944-4.595-0.554-6.314,0.997
		c-15.467,13.924-45.456,35.447-59.985,33.644c-2.661-0.313-4.465-1.349-5.844-3.355c-0.512-0.745-1.131-2.033-0.59-4.589
		c4.205-19.892,57.593-56.546,77.81-68.991c1.706-1.051,2.759-2.896,2.793-4.898l2.925-172.585c0.038-2.358-1.335-4.513-3.492-5.464
		c-2.159-0.959-4.677-0.531-6.394,1.085L462.859,755.888c-1.379,1.295-2.048,3.175-1.8,5.051
		c7.395,55.862,5.859,117.093-8.217,119.206c-2.447,0.367-4.417-0.245-6.366-1.979c-10.802-9.634-13.828-46.765-13.265-69.201
		l14.163-19.147c1.928-2.606,1.377-6.278-1.228-8.207c-2.606-1.922-6.278-1.379-8.209,1.23l-14.868,20.099l-38.977,33.203
		c-2.285,1.945-2.734,5.303-1.037,7.779c0.157,0.233,15.553,23.082,1.502,32.811c-4.318,2.992-8.393,4.13-12.114,3.366
		c-6.274-1.272-10.24-7.436-10.261-7.466c-0.923-1.498-2.468-2.507-4.213-2.74c-1.748-0.241-3.504,0.321-4.79,1.525l-21.94,20.477
		c-1.416,1.322-2.088,3.255-1.798,5.174c3.701,24.389,10.357,91.466-3.108,108.722c-1.937,2.484-3.672,2.915-4.809,3.022
		c-2.728,0.267-5.007-0.581-7.197-2.64c-13.261-12.468-14.724-58.14-14.17-74.684c0.084-2.476-1.397-4.738-3.701-5.655
		c-2.3-0.917-4.931-0.283-6.568,1.578c-10.529,11.948-41.769,43.162-59.655,44.059c-2.785,0.122-4.872-0.516-6.541-2.063
		c-1.421-1.322-1.975-2.785-1.851-4.887c0.858-14.493,31.764-42.214,51.044-56.279c2.038-1.486,2.898-4.108,2.136-6.515
		c-0.76-2.403-2.973-4.054-5.495-4.096c-24.511-0.417-67.184-5.158-77.34-16.113c-1.637-1.765-1.784-3.064-1.729-4.001
		c0.017-0.283,0.061-1.043,1.395-2.159c12.542-10.523,71.763-8.07,106.146-4.054c1.796,0.218,3.563-0.413,4.83-1.681l30.715-30.717
		c1.731-1.731,2.199-4.367,1.186-6.595c-0.071-0.153-6.803-15.574,0.277-22.654c4.543-4.516,16.291,4.138,20.952,8.777
		c1.177,1.181,2.764,1.746,4.474,1.712c1.666-0.096,3.215-0.89,4.258-2.197l29.251-36.567c1.299-1.62,1.641-3.809,0.902-5.754
		c-0.741-1.941-2.453-3.347-4.503-3.695c-23.178-3.936-58.356-14-63.99-24.049c-0.737-1.311-0.646-2.186-0.285-3.091
		c4.241-10.599,59.223-11.207,107.906-5.128c1.783,0.229,3.573-0.386,4.853-1.647l119.932-118.473
		c1.725-1.704,2.224-4.295,1.257-6.517c-0.967-2.226-3.189-3.626-5.624-3.523l-176.973,7.311c-1.882,0.08-3.615,1.058-4.654,2.629
		c-22.526,34.064-61.435,78.662-77.422,71.062c-2.816-1.334-3.418-2.954-3.636-4.36c-1.998-12.903,23.612-42.245,40.225-57.708
		c1.765-1.643,2.346-4.199,1.463-6.442c-0.885-2.247-3.049-3.722-5.462-3.722h-52.655c-2.694,0-5.042,1.834-5.693,4.448
		c-0.063,0.237-6.247,24.133-21.266,21.936c-4.033-0.573-5.347-2.167-5.988-3.318c-3.526-6.342,7.605-25.535-3.373-25.989
		c0,0-34.835-1.447-34.835-1.447l-31.747-4.155c-3.238-0.443-6.161,1.842-6.582,5.059c-0.42,3.213,1.844,6.159,5.057,6.58
		l21.587,2.825c-32.555,39.268-71.465,74.008-82.032,66.758c-1.945-1.337-3.032-3.225-3.424-5.943
		c-1.857-12.916,7.575-27.564,13.909-38.036c4.753-7.858,11.893-14.169,15.999-22.483c6.31-12.776-0.456-13.341-12.159-13.577
		c-16.715-0.337-48.785,1.004-61.517-12.321c-1.393-1.458-1.515-2.558-1.465-3.353c0.052-0.835,0.317-1.956,1.924-3.255
		c8.928-7.204,25.483-6,36.126-5.839c8.45,0.128,33.21,8.258,39.397,0.231c4.632-6.009-9.445-20.534-12.867-25.851
		c-5.19-8.063-36.341-55.706-10.526-55.93c13.291-0.115,28.344,17.211,36.643,25.636c8.666,8.797,16.794,18.117,24.447,27.805
		c6.11,7.734,11.602,21.565,22.542,22.381c10.791,0.804,22.754-1.179,33.664-1.62c2.644-0.107,4.896-1.988,5.49-4.569
		c1.192-5.179,3.784-10.498,7.248-14.516c2.934-3.403,15.428-10.05,19.941-7.982c7.709,3.532-0.422,21.613-3.143,27.53
		c-5.231,11.376,18.594,8.776,24.004,8.801c12.797,0.058,25.601,1.045,38.398,0.979c7.207-0.037,14.827,1.3,22.162,0.391
		c2.846-0.353,8.283-0.473,10.256-3.061c2.84-3.726,1.21-9.213-4.27-9.213l-25.022,0.129
		c-13.008-19.958-30.492-53.772-26.528-67.557c0.655-2.272,1.832-3.68,3.819-4.562c13.398-5.949,51.426,36.739,78.966,79.709
		c1.079,1.685,2.942,2.703,4.942,2.703h169.66c2.386,0,4.534-1.444,5.435-3.655c0.9-2.209,0.372-4.744-1.334-6.412L432.95,450.288
		c-1.456-1.425-3.546-1.993-5.525-1.496c-31.091,7.77-79.713,13.276-85.343,0.416c-0.791-1.811-0.734-3.374,0.195-5.227
		c5.281-10.551,33.162-20.851,51.403-25.489c0,0,15.207,13.047,15.338,13.16c5.702,4.892,13.516-3.871,7.643-8.91
		c0,0-17.632-15.127-17.633-15.128l-33.606-29.224c-1.996-1.737-4.908-1.924-7.107-0.455c-10.968,7.308-30.325,15.693-37.021,10.485
		c-12.998-10.117,19.139-32.091,8.582-39.633c-10.034-7.168-21.648-21.545-34.708-22.772c-11.332-1.064-26.02,4.511-37.613,5.662
		c-13.714,1.362-49.957,7.25-59.207-7.55c-0.86-1.376-0.596-1.916-0.384-2.35c4.805-9.845,26.522-12.907,35.647-15.06
		c9.822-2.317,19.775-4.108,29.762-5.543c4.55-0.654,15.452,0.021,18.316-4.406c4.802-7.422-11.042-14.916-15.89-18.833
		c-10.396-8.399-21.125-16.477-30.141-26.421c-6.121-6.751-21.674-30.093-0.831-29.905c17.397,0.118,45.787,25.398,55.257,35.13
		c1.54,1.584,3.842,2.163,5.951,1.511c2.109-0.657,3.672-2.442,4.043-4.62c6.876-40.456,19.491-70.598,25.207-69.866
		c7.384,4.461,10.601,56.602,7.027,113.857c-0.084,1.345,0.298,2.678,1.081,3.775l14.625,20.477
		c1.853,2.598,5.456,3.225,8.089,1.435c0.201-0.139,20.198-13.522,34.119-3.074c2.73,2.046,4.201,4.478,4.631,7.655
		c1.165,8.593-5.865,19.907-8.668,23.535c-1.882,2.421-1.584,5.882,0.686,7.946l32.176,29.251c1.57,1.427,3.785,1.893,5.8,1.225
		c2.014-0.669,3.508-2.375,3.911-4.457c2.732-14.174,12.942-52.714,27.18-60.749c2.531-1.423,4.824-1.632,7.441-0.669
		c15.563,5.733,7.89,67.318-2.197,107.132c-0.51,2.019,0.084,4.157,1.567,5.619l112.619,111.156
		c1.674,1.654,4.178,2.142,6.362,1.249c2.178-0.9,3.607-3.015,3.63-5.372l1.463-157.958c0.017-1.811-0.804-3.529-2.226-4.656
		c-22.005-17.438-45.107-37.59-61.042-60.844c-4.777-6.971-15.357-25.25,0.077-25.121c18.436,0.154,43.592,25.116,56.348,36.449
		c1.664,1.477,4.014,1.889,6.079,1.062c2.063-0.825,3.485-2.747,3.668-4.961l4.386-52.653c0.266-3.181-2.059-5.989-5.232-6.324
		c-6.654-0.702-18.912-3.479-23.258-9.245c-8.934-11.856,11.805-17.328,20.553-18.598c2.973-0.432,5.147-3.041,5.028-6.045
		c0,0-1.461-36.565-1.463-36.59l-1.641-36.958c-0.143-3.24-2.944-5.785-6.123-5.603c-3.238,0.143-5.747,2.885-5.603,6.123
		l1.08,24.323c-37.939-29.917-73.201-65.124-69.915-74.987c0.159-0.472,0.355-0.862,1.328-1.217
		c11.249-4.109,51.417,15.473,76.337,30.696c2.002,1.223,4.537,1.135,6.45-0.218c1.914-1.353,2.837-3.716,2.352-6.008
		c-3.567-16.816-6.091-47.179,2.319-57.068c1.977-2.323,4.348-3.286,7.751-3.129c3.527,0.166,6.303,1.59,8.731,4.474
		c10.863,12.901,9.214,48.121,7.663,60.602c-0.302,2.424,0.93,4.782,3.093,5.919c2.163,1.142,4.803,0.82,6.629-0.806
		c18.102-16.081,52.011-40.67,65.912-38.15c1.909,0.346,3.099,1.204,3.981,2.87c6.593,12.456-34.861,50.532-77.048,78.666
		c-1.771,1.181-2.764,3.229-2.594,5.351l2.925,36.565c0.235,2.933,2.604,5.239,5.542,5.393c0.222,0.011,22.228,1.494,22.228,13.152
		c0,10.454-20.45,17.498-27.614,19.141c-2.963,0.68-4.923,3.511-4.507,6.524l5.766,41.808c0,0-2.302,32.17-2.321,32.441
		c-0.364,5.082,5.451,7.865,9.44,5.024c3.093-2.202,2.336-6.729,2.688-10.065c0.832-7.893,1.136-15.876,1.703-23.794
		c19.925-9.52,53.044-21.237,66.081-15.714c2.447,1.037,3.871,2.549,4.616,4.904c5.047,15.983-44.942,51.763-82.049,72.065
		c-1.899,1.037-3.072,3.036-3.053,5.198l1.462,169.66c0.021,2.447,1.557,4.623,3.853,5.462c2.298,0.843,4.876,0.168,6.469-1.689
		l115.546-134.559c1.196-1.393,1.67-3.263,1.284-5.059c-3.978-18.471-11.631-70.197,0.569-87.488
		c2.077-2.944,4.497-4.505,7.615-4.912c3.979-0.52,7.002,0.418,9.516,2.948c11.247,11.318,9.092,47.611,7.311,60.641
		c-2.536,18.656,20.539-6.539,22.112-8.249c6.798-7.388,21.206-15.624,22.763-26.392c1.649-11.407-10.46-22.649,1.431-33.331
		c2.384-2.142,4.818-3.076,7.624-2.885c8.277,0.564,15.043,13.668,24.101,10.734c6.82-2.209,16.017-17.179,21.099-22.624
		c4.764-4.22,12.474-8.918,15.819-14.362c3.547-5.773-3.19-12.495-8.547-7.763l-7.768,6.881
		c-5.746-28.358-13.208-81.996-0.707-101.335c2.266-3.506,5.03-5.531,8.452-6.188c4.751-0.915,8.364-0.025,11.388,2.791
		c13.033,12.145,11.251,53.392,9.464,68.26c-0.296,2.47,0.997,4.86,3.229,5.963c2.224,1.099,4.912,0.678,6.696-1.058
		c11.228-10.947,44.451-39.109,62.209-38.445c2.967,0.124,5.12,1.074,6.776,2.984c2.04,2.356,2.721,4.704,2.203,7.609
		c-2.226,12.472-25.77,29.633-40.088,37.522c-2.151,1.185-3.338,3.58-2.975,6.008c0.363,2.428,2.197,4.373,4.6,4.877
		c25.665,5.38,69.517,19.067,77.923,32.883c1.49,2.449,1.28,4.108,0.993,5.141c-3.63,13.058-57.041,11.782-104.446,3.11
		c-1.718-0.306-3.498,0.157-4.837,1.284l-27.788,23.401c-1.83,1.544-2.537,4.056-1.792,6.331c0.076,0.231,7.384,23.147-5.89,36.423
		c-2.742,2.742-5.743,4.006-9.023,3.922c-16.35-0.511-18.869-20.877-33.892-4.625c-7.171,7.758-14.566,15.302-21.921,22.884
		c-3.168,3.266-11.129,10.662-7.589,15.578c2.681,3.723,19.54,2.817,23.896,3.409c15.801,2.147,40.766,4.431,51.924,17.515
		c1.756,2.058,2.464,4.054,2.229,6.282c-0.082,0.772-0.405,1.962-2.262,3.397c-14.403,11.123-74.805,6.916-109.492,1.654
		c-1.928-0.3-3.876,0.39-5.198,1.826L665.859,573.366c-1.578,1.714-1.993,4.199-1.057,6.333c0.934,2.134,3.043,3.511,5.374,3.511
		h160.885c1.97,0,3.81-0.99,4.897-2.633c26.026-39.364,61.338-76.861,72.434-69.926c1.639,1.024,2.421,2.277,2.614,4.19
		c1.353,13.331-23.887,42.802-40.114,58.247c-1.739,1.656-2.294,4.203-1.402,6.431c0.89,2.229,3.049,3.691,5.449,3.691h48.266
		c2.837,0,5.271-2.044,5.777-4.835c0.036-0.201,3.777-20.028,16.165-20.028c15.81,0.008,8.632,23.91,20.039,29.343
		c6.265,2.984,20.485,0.522,27.481,0.731c11.909,0.356,21.836,2.662,30.432-6.836c10.346-11.432,19.263-24.392,30.078-35.648
		c7.741-8.056,35.771-41.207,50.105-33.613c1.547,0.82,2.273,1.815,2.509,3.439c1.924,13.303-25.572,45.844-43.355,63.231
		c-1.706,1.668-2.233,4.203-1.333,6.412c0.902,2.21,3.049,3.655,5.435,3.655c33.542,0,70.357,6.769,71.7,16.847
		c0.063,0.481,0.057,0.907-0.64,1.637C1129.805,615.716,1089.083,616.182,1062.654,613.911z M632.368,578.043
		c1.267,2.984-0.126,6.429-3.11,7.695l-18.737,7.949l4.485,16.259c0.864,3.126-0.972,6.358-4.096,7.218
		c-0.522,0.145-1.047,0.214-1.565,0.214c-2.573,0-4.937-1.708-5.653-4.31l-4.071-14.756l-15.085,6.4
		c-0.749,0.317-1.526,0.468-2.291,0.468c-2.285,0-4.457-1.343-5.405-3.578c-1.267-2.984,0.126-6.429,3.11-7.695l16.522-7.009
		l-3.622-13.131c-0.864-3.126,0.972-6.356,4.096-7.218c3.114-0.862,6.356,0.971,7.218,4.096l3.208,11.629l17.301-7.34
		C627.664,573.666,631.103,575.061,632.368,578.043z"/>
</g>
</svg>
